<?xml version="1.0" encoding="utf-8" standalone="no"?>
<!DOCTYPE svg PUBLIC "-//W3C//DTD SVG 1.1//EN"
  "http://www.w3.org/Graphics/SVG/1.1/DTD/svg11.dtd">
<svg xmlns:xlink="http://www.w3.org/1999/xlink" width="864pt" height="576pt" viewBox="0 0 864 576" xmlns="http://www.w3.org/2000/svg" version="1.1">
 <metadata>
  <rdf:RDF xmlns:dc="http://purl.org/dc/elements/1.1/" xmlns:cc="http://creativecommons.org/ns#" xmlns:rdf="http://www.w3.org/1999/02/22-rdf-syntax-ns#">
   <cc:Work>
    <dc:type rdf:resource="http://purl.org/dc/dcmitype/StillImage"/>
    <dc:date>2024-10-11T16:31:41.992225</dc:date>
    <dc:format>image/svg+xml</dc:format>
    <dc:creator>
     <cc:Agent>
      <dc:title>Matplotlib v3.9.2, https://matplotlib.org/</dc:title>
     </cc:Agent>
    </dc:creator>
   </cc:Work>
  </rdf:RDF>
 </metadata>
 <defs>
  <style type="text/css">*{stroke-linejoin: round; stroke-linecap: butt}</style>
 </defs>
 <g id="figure_1">
  <g id="patch_1">
   <path d="M 0 576 
L 864 576 
L 864 0 
L 0 0 
z
" style="fill: #ffffff"/>
  </g>
  <g id="axes_1">
   <g id="patch_2">
    <path d="M 51.05 409.259711 
L 853.2 409.259711 
L 853.2 26.88 
L 51.05 26.88 
z
" style="fill: #ffffff"/>
   </g>
   <g id="patch_3">
    <path d="M 87.511364 409.259711 
L 209.049242 409.259711 
L 209.049242 219.28602 
L 87.511364 219.28602 
z
" clip-path="url(#p84b784e6da)" style="fill: #87ceeb"/>
   </g>
   <g id="patch_4">
    <path d="M 239.433712 409.259711 
L 360.971591 409.259711 
L 360.971591 221.819046 
L 239.433712 221.819046 
z
" clip-path="url(#p84b784e6da)" style="fill: #87ceeb"/>
   </g>
   <g id="patch_5">
    <path d="M 391.356061 409.259711 
L 512.893939 409.259711 
L 512.893939 219.185322 
L 391.356061 219.185322 
z
" clip-path="url(#p84b784e6da)" style="fill: #87ceeb"/>
   </g>
   <g id="patch_6">
    <path d="M 543.278409 409.259711 
L 664.816288 409.259711 
L 664.816288 218.069855 
L 543.278409 218.069855 
z
" clip-path="url(#p84b784e6da)" style="fill: #87ceeb"/>
   </g>
   <g id="patch_7">
    <path d="M 695.200758 409.259711 
L 816.738636 409.259711 
L 816.738636 220.366405 
L 695.200758 220.366405 
z
" clip-path="url(#p84b784e6da)" style="fill: #87ceeb"/>
   </g>
   <g id="matplotlib.axis_1">
    <g id="xtick_1">
     <g id="line2d_1">
      <defs>
       <path id="maba64012d7" d="M 0 0 
L 0 3.5 
" style="stroke: #000000; stroke-width: 0.8"/>
      </defs>
      <g>
       <use xlink:href="#maba64012d7" x="148.280303" y="409.259711" style="stroke: #000000; stroke-width: 0.8"/>
      </g>
     </g>
     <g id="text_1">
      <!-- test_optimization_o1-gen-ave.csv -->
      <g transform="translate(90.750537 540.397831) rotate(-45) scale(0.1 -0.1)">
       <defs>
        <path id="DejaVuSans-74" d="M 1172 4494 
L 1172 3500 
L 2356 3500 
L 2356 3053 
L 1172 3053 
L 1172 1153 
Q 1172 725 1289 603 
Q 1406 481 1766 481 
L 2356 481 
L 2356 0 
L 1766 0 
Q 1100 0 847 248 
Q 594 497 594 1153 
L 594 3053 
L 172 3053 
L 172 3500 
L 594 3500 
L 594 4494 
L 1172 4494 
z
" transform="scale(0.015625)"/>
        <path id="DejaVuSans-65" d="M 3597 1894 
L 3597 1613 
L 953 1613 
Q 991 1019 1311 708 
Q 1631 397 2203 397 
Q 2534 397 2845 478 
Q 3156 559 3463 722 
L 3463 178 
Q 3153 47 2828 -22 
Q 2503 -91 2169 -91 
Q 1331 -91 842 396 
Q 353 884 353 1716 
Q 353 2575 817 3079 
Q 1281 3584 2069 3584 
Q 2775 3584 3186 3129 
Q 3597 2675 3597 1894 
z
M 3022 2063 
Q 3016 2534 2758 2815 
Q 2500 3097 2075 3097 
Q 1594 3097 1305 2825 
Q 1016 2553 972 2059 
L 3022 2063 
z
" transform="scale(0.015625)"/>
        <path id="DejaVuSans-73" d="M 2834 3397 
L 2834 2853 
Q 2591 2978 2328 3040 
Q 2066 3103 1784 3103 
Q 1356 3103 1142 2972 
Q 928 2841 928 2578 
Q 928 2378 1081 2264 
Q 1234 2150 1697 2047 
L 1894 2003 
Q 2506 1872 2764 1633 
Q 3022 1394 3022 966 
Q 3022 478 2636 193 
Q 2250 -91 1575 -91 
Q 1294 -91 989 -36 
Q 684 19 347 128 
L 347 722 
Q 666 556 975 473 
Q 1284 391 1588 391 
Q 1994 391 2212 530 
Q 2431 669 2431 922 
Q 2431 1156 2273 1281 
Q 2116 1406 1581 1522 
L 1381 1569 
Q 847 1681 609 1914 
Q 372 2147 372 2553 
Q 372 3047 722 3315 
Q 1072 3584 1716 3584 
Q 2034 3584 2315 3537 
Q 2597 3491 2834 3397 
z
" transform="scale(0.015625)"/>
        <path id="DejaVuSans-5f" d="M 3263 -1063 
L 3263 -1509 
L -63 -1509 
L -63 -1063 
L 3263 -1063 
z
" transform="scale(0.015625)"/>
        <path id="DejaVuSans-6f" d="M 1959 3097 
Q 1497 3097 1228 2736 
Q 959 2375 959 1747 
Q 959 1119 1226 758 
Q 1494 397 1959 397 
Q 2419 397 2687 759 
Q 2956 1122 2956 1747 
Q 2956 2369 2687 2733 
Q 2419 3097 1959 3097 
z
M 1959 3584 
Q 2709 3584 3137 3096 
Q 3566 2609 3566 1747 
Q 3566 888 3137 398 
Q 2709 -91 1959 -91 
Q 1206 -91 779 398 
Q 353 888 353 1747 
Q 353 2609 779 3096 
Q 1206 3584 1959 3584 
z
" transform="scale(0.015625)"/>
        <path id="DejaVuSans-70" d="M 1159 525 
L 1159 -1331 
L 581 -1331 
L 581 3500 
L 1159 3500 
L 1159 2969 
Q 1341 3281 1617 3432 
Q 1894 3584 2278 3584 
Q 2916 3584 3314 3078 
Q 3713 2572 3713 1747 
Q 3713 922 3314 415 
Q 2916 -91 2278 -91 
Q 1894 -91 1617 61 
Q 1341 213 1159 525 
z
M 3116 1747 
Q 3116 2381 2855 2742 
Q 2594 3103 2138 3103 
Q 1681 3103 1420 2742 
Q 1159 2381 1159 1747 
Q 1159 1113 1420 752 
Q 1681 391 2138 391 
Q 2594 391 2855 752 
Q 3116 1113 3116 1747 
z
" transform="scale(0.015625)"/>
        <path id="DejaVuSans-69" d="M 603 3500 
L 1178 3500 
L 1178 0 
L 603 0 
L 603 3500 
z
M 603 4863 
L 1178 4863 
L 1178 4134 
L 603 4134 
L 603 4863 
z
" transform="scale(0.015625)"/>
        <path id="DejaVuSans-6d" d="M 3328 2828 
Q 3544 3216 3844 3400 
Q 4144 3584 4550 3584 
Q 5097 3584 5394 3201 
Q 5691 2819 5691 2113 
L 5691 0 
L 5113 0 
L 5113 2094 
Q 5113 2597 4934 2840 
Q 4756 3084 4391 3084 
Q 3944 3084 3684 2787 
Q 3425 2491 3425 1978 
L 3425 0 
L 2847 0 
L 2847 2094 
Q 2847 2600 2669 2842 
Q 2491 3084 2119 3084 
Q 1678 3084 1418 2786 
Q 1159 2488 1159 1978 
L 1159 0 
L 581 0 
L 581 3500 
L 1159 3500 
L 1159 2956 
Q 1356 3278 1631 3431 
Q 1906 3584 2284 3584 
Q 2666 3584 2933 3390 
Q 3200 3197 3328 2828 
z
" transform="scale(0.015625)"/>
        <path id="DejaVuSans-7a" d="M 353 3500 
L 3084 3500 
L 3084 2975 
L 922 459 
L 3084 459 
L 3084 0 
L 275 0 
L 275 525 
L 2438 3041 
L 353 3041 
L 353 3500 
z
" transform="scale(0.015625)"/>
        <path id="DejaVuSans-61" d="M 2194 1759 
Q 1497 1759 1228 1600 
Q 959 1441 959 1056 
Q 959 750 1161 570 
Q 1363 391 1709 391 
Q 2188 391 2477 730 
Q 2766 1069 2766 1631 
L 2766 1759 
L 2194 1759 
z
M 3341 1997 
L 3341 0 
L 2766 0 
L 2766 531 
Q 2569 213 2275 61 
Q 1981 -91 1556 -91 
Q 1019 -91 701 211 
Q 384 513 384 1019 
Q 384 1609 779 1909 
Q 1175 2209 1959 2209 
L 2766 2209 
L 2766 2266 
Q 2766 2663 2505 2880 
Q 2244 3097 1772 3097 
Q 1472 3097 1187 3025 
Q 903 2953 641 2809 
L 641 3341 
Q 956 3463 1253 3523 
Q 1550 3584 1831 3584 
Q 2591 3584 2966 3190 
Q 3341 2797 3341 1997 
z
" transform="scale(0.015625)"/>
        <path id="DejaVuSans-6e" d="M 3513 2113 
L 3513 0 
L 2938 0 
L 2938 2094 
Q 2938 2591 2744 2837 
Q 2550 3084 2163 3084 
Q 1697 3084 1428 2787 
Q 1159 2491 1159 1978 
L 1159 0 
L 581 0 
L 581 3500 
L 1159 3500 
L 1159 2956 
Q 1366 3272 1645 3428 
Q 1925 3584 2291 3584 
Q 2894 3584 3203 3211 
Q 3513 2838 3513 2113 
z
" transform="scale(0.015625)"/>
        <path id="DejaVuSans-31" d="M 794 531 
L 1825 531 
L 1825 4091 
L 703 3866 
L 703 4441 
L 1819 4666 
L 2450 4666 
L 2450 531 
L 3481 531 
L 3481 0 
L 794 0 
L 794 531 
z
" transform="scale(0.015625)"/>
        <path id="DejaVuSans-2d" d="M 313 2009 
L 1997 2009 
L 1997 1497 
L 313 1497 
L 313 2009 
z
" transform="scale(0.015625)"/>
        <path id="DejaVuSans-67" d="M 2906 1791 
Q 2906 2416 2648 2759 
Q 2391 3103 1925 3103 
Q 1463 3103 1205 2759 
Q 947 2416 947 1791 
Q 947 1169 1205 825 
Q 1463 481 1925 481 
Q 2391 481 2648 825 
Q 2906 1169 2906 1791 
z
M 3481 434 
Q 3481 -459 3084 -895 
Q 2688 -1331 1869 -1331 
Q 1566 -1331 1297 -1286 
Q 1028 -1241 775 -1147 
L 775 -588 
Q 1028 -725 1275 -790 
Q 1522 -856 1778 -856 
Q 2344 -856 2625 -561 
Q 2906 -266 2906 331 
L 2906 616 
Q 2728 306 2450 153 
Q 2172 0 1784 0 
Q 1141 0 747 490 
Q 353 981 353 1791 
Q 353 2603 747 3093 
Q 1141 3584 1784 3584 
Q 2172 3584 2450 3431 
Q 2728 3278 2906 2969 
L 2906 3500 
L 3481 3500 
L 3481 434 
z
" transform="scale(0.015625)"/>
        <path id="DejaVuSans-76" d="M 191 3500 
L 800 3500 
L 1894 563 
L 2988 3500 
L 3597 3500 
L 2284 0 
L 1503 0 
L 191 3500 
z
" transform="scale(0.015625)"/>
        <path id="DejaVuSans-2e" d="M 684 794 
L 1344 794 
L 1344 0 
L 684 0 
L 684 794 
z
" transform="scale(0.015625)"/>
        <path id="DejaVuSans-63" d="M 3122 3366 
L 3122 2828 
Q 2878 2963 2633 3030 
Q 2388 3097 2138 3097 
Q 1578 3097 1268 2742 
Q 959 2388 959 1747 
Q 959 1106 1268 751 
Q 1578 397 2138 397 
Q 2388 397 2633 464 
Q 2878 531 3122 666 
L 3122 134 
Q 2881 22 2623 -34 
Q 2366 -91 2075 -91 
Q 1284 -91 818 406 
Q 353 903 353 1747 
Q 353 2603 823 3093 
Q 1294 3584 2113 3584 
Q 2378 3584 2631 3529 
Q 2884 3475 3122 3366 
z
" transform="scale(0.015625)"/>
       </defs>
       <use xlink:href="#DejaVuSans-74"/>
       <use xlink:href="#DejaVuSans-65" x="39.208984"/>
       <use xlink:href="#DejaVuSans-73" x="100.732422"/>
       <use xlink:href="#DejaVuSans-74" x="152.832031"/>
       <use xlink:href="#DejaVuSans-5f" x="192.041016"/>
       <use xlink:href="#DejaVuSans-6f" x="242.041016"/>
       <use xlink:href="#DejaVuSans-70" x="303.222656"/>
       <use xlink:href="#DejaVuSans-74" x="366.699219"/>
       <use xlink:href="#DejaVuSans-69" x="405.908203"/>
       <use xlink:href="#DejaVuSans-6d" x="433.691406"/>
       <use xlink:href="#DejaVuSans-69" x="531.103516"/>
       <use xlink:href="#DejaVuSans-7a" x="558.886719"/>
       <use xlink:href="#DejaVuSans-61" x="611.376953"/>
       <use xlink:href="#DejaVuSans-74" x="672.65625"/>
       <use xlink:href="#DejaVuSans-69" x="711.865234"/>
       <use xlink:href="#DejaVuSans-6f" x="739.648438"/>
       <use xlink:href="#DejaVuSans-6e" x="800.830078"/>
       <use xlink:href="#DejaVuSans-5f" x="864.208984"/>
       <use xlink:href="#DejaVuSans-6f" x="914.208984"/>
       <use xlink:href="#DejaVuSans-31" x="975.390625"/>
       <use xlink:href="#DejaVuSans-2d" x="1039.013672"/>
       <use xlink:href="#DejaVuSans-67" x="1075.097656"/>
       <use xlink:href="#DejaVuSans-65" x="1138.574219"/>
       <use xlink:href="#DejaVuSans-6e" x="1200.097656"/>
       <use xlink:href="#DejaVuSans-2d" x="1263.476562"/>
       <use xlink:href="#DejaVuSans-61" x="1299.560547"/>
       <use xlink:href="#DejaVuSans-76" x="1360.839844"/>
       <use xlink:href="#DejaVuSans-65" x="1420.019531"/>
       <use xlink:href="#DejaVuSans-2e" x="1481.542969"/>
       <use xlink:href="#DejaVuSans-63" x="1513.330078"/>
       <use xlink:href="#DejaVuSans-73" x="1568.310547"/>
       <use xlink:href="#DejaVuSans-76" x="1620.410156"/>
      </g>
     </g>
    </g>
    <g id="xtick_2">
     <g id="line2d_2">
      <g>
       <use xlink:href="#maba64012d7" x="300.202652" y="409.259711" style="stroke: #000000; stroke-width: 0.8"/>
      </g>
     </g>
     <g id="text_2">
      <!-- test_optimization_o2-gen-ave.csv -->
      <g transform="translate(242.672886 540.397831) rotate(-45) scale(0.1 -0.1)">
       <defs>
        <path id="DejaVuSans-32" d="M 1228 531 
L 3431 531 
L 3431 0 
L 469 0 
L 469 531 
Q 828 903 1448 1529 
Q 2069 2156 2228 2338 
Q 2531 2678 2651 2914 
Q 2772 3150 2772 3378 
Q 2772 3750 2511 3984 
Q 2250 4219 1831 4219 
Q 1534 4219 1204 4116 
Q 875 4013 500 3803 
L 500 4441 
Q 881 4594 1212 4672 
Q 1544 4750 1819 4750 
Q 2544 4750 2975 4387 
Q 3406 4025 3406 3419 
Q 3406 3131 3298 2873 
Q 3191 2616 2906 2266 
Q 2828 2175 2409 1742 
Q 1991 1309 1228 531 
z
" transform="scale(0.015625)"/>
       </defs>
       <use xlink:href="#DejaVuSans-74"/>
       <use xlink:href="#DejaVuSans-65" x="39.208984"/>
       <use xlink:href="#DejaVuSans-73" x="100.732422"/>
       <use xlink:href="#DejaVuSans-74" x="152.832031"/>
       <use xlink:href="#DejaVuSans-5f" x="192.041016"/>
       <use xlink:href="#DejaVuSans-6f" x="242.041016"/>
       <use xlink:href="#DejaVuSans-70" x="303.222656"/>
       <use xlink:href="#DejaVuSans-74" x="366.699219"/>
       <use xlink:href="#DejaVuSans-69" x="405.908203"/>
       <use xlink:href="#DejaVuSans-6d" x="433.691406"/>
       <use xlink:href="#DejaVuSans-69" x="531.103516"/>
       <use xlink:href="#DejaVuSans-7a" x="558.886719"/>
       <use xlink:href="#DejaVuSans-61" x="611.376953"/>
       <use xlink:href="#DejaVuSans-74" x="672.65625"/>
       <use xlink:href="#DejaVuSans-69" x="711.865234"/>
       <use xlink:href="#DejaVuSans-6f" x="739.648438"/>
       <use xlink:href="#DejaVuSans-6e" x="800.830078"/>
       <use xlink:href="#DejaVuSans-5f" x="864.208984"/>
       <use xlink:href="#DejaVuSans-6f" x="914.208984"/>
       <use xlink:href="#DejaVuSans-32" x="975.390625"/>
       <use xlink:href="#DejaVuSans-2d" x="1039.013672"/>
       <use xlink:href="#DejaVuSans-67" x="1075.097656"/>
       <use xlink:href="#DejaVuSans-65" x="1138.574219"/>
       <use xlink:href="#DejaVuSans-6e" x="1200.097656"/>
       <use xlink:href="#DejaVuSans-2d" x="1263.476562"/>
       <use xlink:href="#DejaVuSans-61" x="1299.560547"/>
       <use xlink:href="#DejaVuSans-76" x="1360.839844"/>
       <use xlink:href="#DejaVuSans-65" x="1420.019531"/>
       <use xlink:href="#DejaVuSans-2e" x="1481.542969"/>
       <use xlink:href="#DejaVuSans-63" x="1513.330078"/>
       <use xlink:href="#DejaVuSans-73" x="1568.310547"/>
       <use xlink:href="#DejaVuSans-76" x="1620.410156"/>
      </g>
     </g>
    </g>
    <g id="xtick_3">
     <g id="line2d_3">
      <g>
       <use xlink:href="#maba64012d7" x="452.125" y="409.259711" style="stroke: #000000; stroke-width: 0.8"/>
      </g>
     </g>
     <g id="text_3">
      <!-- test_optimization_ofast-gen-ave.csv -->
      <g transform="translate(390.205648 549.177003) rotate(-45) scale(0.1 -0.1)">
       <defs>
        <path id="DejaVuSans-66" d="M 2375 4863 
L 2375 4384 
L 1825 4384 
Q 1516 4384 1395 4259 
Q 1275 4134 1275 3809 
L 1275 3500 
L 2222 3500 
L 2222 3053 
L 1275 3053 
L 1275 0 
L 697 0 
L 697 3053 
L 147 3053 
L 147 3500 
L 697 3500 
L 697 3744 
Q 697 4328 969 4595 
Q 1241 4863 1831 4863 
L 2375 4863 
z
" transform="scale(0.015625)"/>
       </defs>
       <use xlink:href="#DejaVuSans-74"/>
       <use xlink:href="#DejaVuSans-65" x="39.208984"/>
       <use xlink:href="#DejaVuSans-73" x="100.732422"/>
       <use xlink:href="#DejaVuSans-74" x="152.832031"/>
       <use xlink:href="#DejaVuSans-5f" x="192.041016"/>
       <use xlink:href="#DejaVuSans-6f" x="242.041016"/>
       <use xlink:href="#DejaVuSans-70" x="303.222656"/>
       <use xlink:href="#DejaVuSans-74" x="366.699219"/>
       <use xlink:href="#DejaVuSans-69" x="405.908203"/>
       <use xlink:href="#DejaVuSans-6d" x="433.691406"/>
       <use xlink:href="#DejaVuSans-69" x="531.103516"/>
       <use xlink:href="#DejaVuSans-7a" x="558.886719"/>
       <use xlink:href="#DejaVuSans-61" x="611.376953"/>
       <use xlink:href="#DejaVuSans-74" x="672.65625"/>
       <use xlink:href="#DejaVuSans-69" x="711.865234"/>
       <use xlink:href="#DejaVuSans-6f" x="739.648438"/>
       <use xlink:href="#DejaVuSans-6e" x="800.830078"/>
       <use xlink:href="#DejaVuSans-5f" x="864.208984"/>
       <use xlink:href="#DejaVuSans-6f" x="914.208984"/>
       <use xlink:href="#DejaVuSans-66" x="975.390625"/>
       <use xlink:href="#DejaVuSans-61" x="1010.595703"/>
       <use xlink:href="#DejaVuSans-73" x="1071.875"/>
       <use xlink:href="#DejaVuSans-74" x="1123.974609"/>
       <use xlink:href="#DejaVuSans-2d" x="1163.183594"/>
       <use xlink:href="#DejaVuSans-67" x="1199.267578"/>
       <use xlink:href="#DejaVuSans-65" x="1262.744141"/>
       <use xlink:href="#DejaVuSans-6e" x="1324.267578"/>
       <use xlink:href="#DejaVuSans-2d" x="1387.646484"/>
       <use xlink:href="#DejaVuSans-61" x="1423.730469"/>
       <use xlink:href="#DejaVuSans-76" x="1485.009766"/>
       <use xlink:href="#DejaVuSans-65" x="1544.189453"/>
       <use xlink:href="#DejaVuSans-2e" x="1605.712891"/>
       <use xlink:href="#DejaVuSans-63" x="1637.5"/>
       <use xlink:href="#DejaVuSans-73" x="1692.480469"/>
       <use xlink:href="#DejaVuSans-76" x="1744.580078"/>
      </g>
     </g>
    </g>
    <g id="xtick_4">
     <g id="line2d_4">
      <g>
       <use xlink:href="#maba64012d7" x="604.047348" y="409.259711" style="stroke: #000000; stroke-width: 0.8"/>
      </g>
     </g>
     <g id="text_4">
      <!-- test_optimization_o0-gen-ave.csv -->
      <g transform="translate(546.517583 540.397831) rotate(-45) scale(0.1 -0.1)">
       <defs>
        <path id="DejaVuSans-30" d="M 2034 4250 
Q 1547 4250 1301 3770 
Q 1056 3291 1056 2328 
Q 1056 1369 1301 889 
Q 1547 409 2034 409 
Q 2525 409 2770 889 
Q 3016 1369 3016 2328 
Q 3016 3291 2770 3770 
Q 2525 4250 2034 4250 
z
M 2034 4750 
Q 2819 4750 3233 4129 
Q 3647 3509 3647 2328 
Q 3647 1150 3233 529 
Q 2819 -91 2034 -91 
Q 1250 -91 836 529 
Q 422 1150 422 2328 
Q 422 3509 836 4129 
Q 1250 4750 2034 4750 
z
" transform="scale(0.015625)"/>
       </defs>
       <use xlink:href="#DejaVuSans-74"/>
       <use xlink:href="#DejaVuSans-65" x="39.208984"/>
       <use xlink:href="#DejaVuSans-73" x="100.732422"/>
       <use xlink:href="#DejaVuSans-74" x="152.832031"/>
       <use xlink:href="#DejaVuSans-5f" x="192.041016"/>
       <use xlink:href="#DejaVuSans-6f" x="242.041016"/>
       <use xlink:href="#DejaVuSans-70" x="303.222656"/>
       <use xlink:href="#DejaVuSans-74" x="366.699219"/>
       <use xlink:href="#DejaVuSans-69" x="405.908203"/>
       <use xlink:href="#DejaVuSans-6d" x="433.691406"/>
       <use xlink:href="#DejaVuSans-69" x="531.103516"/>
       <use xlink:href="#DejaVuSans-7a" x="558.886719"/>
       <use xlink:href="#DejaVuSans-61" x="611.376953"/>
       <use xlink:href="#DejaVuSans-74" x="672.65625"/>
       <use xlink:href="#DejaVuSans-69" x="711.865234"/>
       <use xlink:href="#DejaVuSans-6f" x="739.648438"/>
       <use xlink:href="#DejaVuSans-6e" x="800.830078"/>
       <use xlink:href="#DejaVuSans-5f" x="864.208984"/>
       <use xlink:href="#DejaVuSans-6f" x="914.208984"/>
       <use xlink:href="#DejaVuSans-30" x="975.390625"/>
       <use xlink:href="#DejaVuSans-2d" x="1039.013672"/>
       <use xlink:href="#DejaVuSans-67" x="1075.097656"/>
       <use xlink:href="#DejaVuSans-65" x="1138.574219"/>
       <use xlink:href="#DejaVuSans-6e" x="1200.097656"/>
       <use xlink:href="#DejaVuSans-2d" x="1263.476562"/>
       <use xlink:href="#DejaVuSans-61" x="1299.560547"/>
       <use xlink:href="#DejaVuSans-76" x="1360.839844"/>
       <use xlink:href="#DejaVuSans-65" x="1420.019531"/>
       <use xlink:href="#DejaVuSans-2e" x="1481.542969"/>
       <use xlink:href="#DejaVuSans-63" x="1513.330078"/>
       <use xlink:href="#DejaVuSans-73" x="1568.310547"/>
       <use xlink:href="#DejaVuSans-76" x="1620.410156"/>
      </g>
     </g>
    </g>
    <g id="xtick_5">
     <g id="line2d_5">
      <g>
       <use xlink:href="#maba64012d7" x="755.969697" y="409.259711" style="stroke: #000000; stroke-width: 0.8"/>
      </g>
     </g>
     <g id="text_5">
      <!-- test_optimization_o3-gen-ave.csv -->
      <g transform="translate(698.439931 540.397831) rotate(-45) scale(0.1 -0.1)">
       <defs>
        <path id="DejaVuSans-33" d="M 2597 2516 
Q 3050 2419 3304 2112 
Q 3559 1806 3559 1356 
Q 3559 666 3084 287 
Q 2609 -91 1734 -91 
Q 1441 -91 1130 -33 
Q 819 25 488 141 
L 488 750 
Q 750 597 1062 519 
Q 1375 441 1716 441 
Q 2309 441 2620 675 
Q 2931 909 2931 1356 
Q 2931 1769 2642 2001 
Q 2353 2234 1838 2234 
L 1294 2234 
L 1294 2753 
L 1863 2753 
Q 2328 2753 2575 2939 
Q 2822 3125 2822 3475 
Q 2822 3834 2567 4026 
Q 2313 4219 1838 4219 
Q 1578 4219 1281 4162 
Q 984 4106 628 3988 
L 628 4550 
Q 988 4650 1302 4700 
Q 1616 4750 1894 4750 
Q 2613 4750 3031 4423 
Q 3450 4097 3450 3541 
Q 3450 3153 3228 2886 
Q 3006 2619 2597 2516 
z
" transform="scale(0.015625)"/>
       </defs>
       <use xlink:href="#DejaVuSans-74"/>
       <use xlink:href="#DejaVuSans-65" x="39.208984"/>
       <use xlink:href="#DejaVuSans-73" x="100.732422"/>
       <use xlink:href="#DejaVuSans-74" x="152.832031"/>
       <use xlink:href="#DejaVuSans-5f" x="192.041016"/>
       <use xlink:href="#DejaVuSans-6f" x="242.041016"/>
       <use xlink:href="#DejaVuSans-70" x="303.222656"/>
       <use xlink:href="#DejaVuSans-74" x="366.699219"/>
       <use xlink:href="#DejaVuSans-69" x="405.908203"/>
       <use xlink:href="#DejaVuSans-6d" x="433.691406"/>
       <use xlink:href="#DejaVuSans-69" x="531.103516"/>
       <use xlink:href="#DejaVuSans-7a" x="558.886719"/>
       <use xlink:href="#DejaVuSans-61" x="611.376953"/>
       <use xlink:href="#DejaVuSans-74" x="672.65625"/>
       <use xlink:href="#DejaVuSans-69" x="711.865234"/>
       <use xlink:href="#DejaVuSans-6f" x="739.648438"/>
       <use xlink:href="#DejaVuSans-6e" x="800.830078"/>
       <use xlink:href="#DejaVuSans-5f" x="864.208984"/>
       <use xlink:href="#DejaVuSans-6f" x="914.208984"/>
       <use xlink:href="#DejaVuSans-33" x="975.390625"/>
       <use xlink:href="#DejaVuSans-2d" x="1039.013672"/>
       <use xlink:href="#DejaVuSans-67" x="1075.097656"/>
       <use xlink:href="#DejaVuSans-65" x="1138.574219"/>
       <use xlink:href="#DejaVuSans-6e" x="1200.097656"/>
       <use xlink:href="#DejaVuSans-2d" x="1263.476562"/>
       <use xlink:href="#DejaVuSans-61" x="1299.560547"/>
       <use xlink:href="#DejaVuSans-76" x="1360.839844"/>
       <use xlink:href="#DejaVuSans-65" x="1420.019531"/>
       <use xlink:href="#DejaVuSans-2e" x="1481.542969"/>
       <use xlink:href="#DejaVuSans-63" x="1513.330078"/>
       <use xlink:href="#DejaVuSans-73" x="1568.310547"/>
       <use xlink:href="#DejaVuSans-76" x="1620.410156"/>
      </g>
     </g>
    </g>
    <g id="text_6">
     <!-- Experiments -->
     <g transform="translate(420.630469 562.442666) scale(0.1 -0.1)">
      <defs>
       <path id="DejaVuSans-45" d="M 628 4666 
L 3578 4666 
L 3578 4134 
L 1259 4134 
L 1259 2753 
L 3481 2753 
L 3481 2222 
L 1259 2222 
L 1259 531 
L 3634 531 
L 3634 0 
L 628 0 
L 628 4666 
z
" transform="scale(0.015625)"/>
       <path id="DejaVuSans-78" d="M 3513 3500 
L 2247 1797 
L 3578 0 
L 2900 0 
L 1881 1375 
L 863 0 
L 184 0 
L 1544 1831 
L 300 3500 
L 978 3500 
L 1906 2253 
L 2834 3500 
L 3513 3500 
z
" transform="scale(0.015625)"/>
       <path id="DejaVuSans-72" d="M 2631 2963 
Q 2534 3019 2420 3045 
Q 2306 3072 2169 3072 
Q 1681 3072 1420 2755 
Q 1159 2438 1159 1844 
L 1159 0 
L 581 0 
L 581 3500 
L 1159 3500 
L 1159 2956 
Q 1341 3275 1631 3429 
Q 1922 3584 2338 3584 
Q 2397 3584 2469 3576 
Q 2541 3569 2628 3553 
L 2631 2963 
z
" transform="scale(0.015625)"/>
      </defs>
      <use xlink:href="#DejaVuSans-45"/>
      <use xlink:href="#DejaVuSans-78" x="63.183594"/>
      <use xlink:href="#DejaVuSans-70" x="122.363281"/>
      <use xlink:href="#DejaVuSans-65" x="185.839844"/>
      <use xlink:href="#DejaVuSans-72" x="247.363281"/>
      <use xlink:href="#DejaVuSans-69" x="288.476562"/>
      <use xlink:href="#DejaVuSans-6d" x="316.259766"/>
      <use xlink:href="#DejaVuSans-65" x="413.671875"/>
      <use xlink:href="#DejaVuSans-6e" x="475.195312"/>
      <use xlink:href="#DejaVuSans-74" x="538.574219"/>
      <use xlink:href="#DejaVuSans-73" x="577.783203"/>
     </g>
    </g>
   </g>
   <g id="matplotlib.axis_2">
    <g id="ytick_1">
     <g id="line2d_6">
      <path d="M 51.05 409.259711 
L 853.2 409.259711 
" clip-path="url(#p84b784e6da)" style="fill: none; stroke: #b0b0b0; stroke-width: 0.8; stroke-linecap: square"/>
     </g>
     <g id="line2d_7">
      <defs>
       <path id="mae75f282de" d="M 0 0 
L -3.5 0 
" style="stroke: #000000; stroke-width: 0.8"/>
      </defs>
      <g>
       <use xlink:href="#mae75f282de" x="51.05" y="409.259711" style="stroke: #000000; stroke-width: 0.8"/>
      </g>
     </g>
     <g id="text_7">
      <!-- 0 -->
      <g transform="translate(37.6875 413.05893) scale(0.1 -0.1)">
       <use xlink:href="#DejaVuSans-30"/>
      </g>
     </g>
    </g>
    <g id="ytick_2">
     <g id="line2d_8">
      <path d="M 51.05 391.71888 
L 853.2 391.71888 
" clip-path="url(#p84b784e6da)" style="fill: none; stroke: #b0b0b0; stroke-width: 0.8; stroke-linecap: square"/>
     </g>
     <g id="line2d_9">
      <g>
       <use xlink:href="#mae75f282de" x="51.05" y="391.71888" style="stroke: #000000; stroke-width: 0.8"/>
      </g>
     </g>
     <g id="text_8">
      <!-- 9 -->
      <g transform="translate(37.6875 395.518099) scale(0.1 -0.1)">
       <defs>
        <path id="DejaVuSans-39" d="M 703 97 
L 703 672 
Q 941 559 1184 500 
Q 1428 441 1663 441 
Q 2288 441 2617 861 
Q 2947 1281 2994 2138 
Q 2813 1869 2534 1725 
Q 2256 1581 1919 1581 
Q 1219 1581 811 2004 
Q 403 2428 403 3163 
Q 403 3881 828 4315 
Q 1253 4750 1959 4750 
Q 2769 4750 3195 4129 
Q 3622 3509 3622 2328 
Q 3622 1225 3098 567 
Q 2575 -91 1691 -91 
Q 1453 -91 1209 -44 
Q 966 3 703 97 
z
M 1959 2075 
Q 2384 2075 2632 2365 
Q 2881 2656 2881 3163 
Q 2881 3666 2632 3958 
Q 2384 4250 1959 4250 
Q 1534 4250 1286 3958 
Q 1038 3666 1038 3163 
Q 1038 2656 1286 2365 
Q 1534 2075 1959 2075 
z
" transform="scale(0.015625)"/>
       </defs>
       <use xlink:href="#DejaVuSans-39"/>
      </g>
     </g>
    </g>
    <g id="ytick_3">
     <g id="line2d_10">
      <path d="M 51.05 374.17805 
L 853.2 374.17805 
" clip-path="url(#p84b784e6da)" style="fill: none; stroke: #b0b0b0; stroke-width: 0.8; stroke-linecap: square"/>
     </g>
     <g id="line2d_11">
      <g>
       <use xlink:href="#mae75f282de" x="51.05" y="374.17805" style="stroke: #000000; stroke-width: 0.8"/>
      </g>
     </g>
     <g id="text_9">
      <!-- 18 -->
      <g transform="translate(31.325 377.977269) scale(0.1 -0.1)">
       <defs>
        <path id="DejaVuSans-38" d="M 2034 2216 
Q 1584 2216 1326 1975 
Q 1069 1734 1069 1313 
Q 1069 891 1326 650 
Q 1584 409 2034 409 
Q 2484 409 2743 651 
Q 3003 894 3003 1313 
Q 3003 1734 2745 1975 
Q 2488 2216 2034 2216 
z
M 1403 2484 
Q 997 2584 770 2862 
Q 544 3141 544 3541 
Q 544 4100 942 4425 
Q 1341 4750 2034 4750 
Q 2731 4750 3128 4425 
Q 3525 4100 3525 3541 
Q 3525 3141 3298 2862 
Q 3072 2584 2669 2484 
Q 3125 2378 3379 2068 
Q 3634 1759 3634 1313 
Q 3634 634 3220 271 
Q 2806 -91 2034 -91 
Q 1263 -91 848 271 
Q 434 634 434 1313 
Q 434 1759 690 2068 
Q 947 2378 1403 2484 
z
M 1172 3481 
Q 1172 3119 1398 2916 
Q 1625 2713 2034 2713 
Q 2441 2713 2670 2916 
Q 2900 3119 2900 3481 
Q 2900 3844 2670 4047 
Q 2441 4250 2034 4250 
Q 1625 4250 1398 4047 
Q 1172 3844 1172 3481 
z
" transform="scale(0.015625)"/>
       </defs>
       <use xlink:href="#DejaVuSans-31"/>
       <use xlink:href="#DejaVuSans-38" x="63.623047"/>
      </g>
     </g>
    </g>
    <g id="ytick_4">
     <g id="line2d_12">
      <path d="M 51.05 356.637219 
L 853.2 356.637219 
" clip-path="url(#p84b784e6da)" style="fill: none; stroke: #b0b0b0; stroke-width: 0.8; stroke-linecap: square"/>
     </g>
     <g id="line2d_13">
      <g>
       <use xlink:href="#mae75f282de" x="51.05" y="356.637219" style="stroke: #000000; stroke-width: 0.8"/>
      </g>
     </g>
     <g id="text_10">
      <!-- 27 -->
      <g transform="translate(31.325 360.436438) scale(0.1 -0.1)">
       <defs>
        <path id="DejaVuSans-37" d="M 525 4666 
L 3525 4666 
L 3525 4397 
L 1831 0 
L 1172 0 
L 2766 4134 
L 525 4134 
L 525 4666 
z
" transform="scale(0.015625)"/>
       </defs>
       <use xlink:href="#DejaVuSans-32"/>
       <use xlink:href="#DejaVuSans-37" x="63.623047"/>
      </g>
     </g>
    </g>
    <g id="ytick_5">
     <g id="line2d_14">
      <path d="M 51.05 339.096389 
L 853.2 339.096389 
" clip-path="url(#p84b784e6da)" style="fill: none; stroke: #b0b0b0; stroke-width: 0.8; stroke-linecap: square"/>
     </g>
     <g id="line2d_15">
      <g>
       <use xlink:href="#mae75f282de" x="51.05" y="339.096389" style="stroke: #000000; stroke-width: 0.8"/>
      </g>
     </g>
     <g id="text_11">
      <!-- 36 -->
      <g transform="translate(31.325 342.895607) scale(0.1 -0.1)">
       <defs>
        <path id="DejaVuSans-36" d="M 2113 2584 
Q 1688 2584 1439 2293 
Q 1191 2003 1191 1497 
Q 1191 994 1439 701 
Q 1688 409 2113 409 
Q 2538 409 2786 701 
Q 3034 994 3034 1497 
Q 3034 2003 2786 2293 
Q 2538 2584 2113 2584 
z
M 3366 4563 
L 3366 3988 
Q 3128 4100 2886 4159 
Q 2644 4219 2406 4219 
Q 1781 4219 1451 3797 
Q 1122 3375 1075 2522 
Q 1259 2794 1537 2939 
Q 1816 3084 2150 3084 
Q 2853 3084 3261 2657 
Q 3669 2231 3669 1497 
Q 3669 778 3244 343 
Q 2819 -91 2113 -91 
Q 1303 -91 875 529 
Q 447 1150 447 2328 
Q 447 3434 972 4092 
Q 1497 4750 2381 4750 
Q 2619 4750 2861 4703 
Q 3103 4656 3366 4563 
z
" transform="scale(0.015625)"/>
       </defs>
       <use xlink:href="#DejaVuSans-33"/>
       <use xlink:href="#DejaVuSans-36" x="63.623047"/>
      </g>
     </g>
    </g>
    <g id="ytick_6">
     <g id="line2d_16">
      <path d="M 51.05 321.555558 
L 853.2 321.555558 
" clip-path="url(#p84b784e6da)" style="fill: none; stroke: #b0b0b0; stroke-width: 0.8; stroke-linecap: square"/>
     </g>
     <g id="line2d_17">
      <g>
       <use xlink:href="#mae75f282de" x="51.05" y="321.555558" style="stroke: #000000; stroke-width: 0.8"/>
      </g>
     </g>
     <g id="text_12">
      <!-- 45 -->
      <g transform="translate(31.325 325.354777) scale(0.1 -0.1)">
       <defs>
        <path id="DejaVuSans-34" d="M 2419 4116 
L 825 1625 
L 2419 1625 
L 2419 4116 
z
M 2253 4666 
L 3047 4666 
L 3047 1625 
L 3713 1625 
L 3713 1100 
L 3047 1100 
L 3047 0 
L 2419 0 
L 2419 1100 
L 313 1100 
L 313 1709 
L 2253 4666 
z
" transform="scale(0.015625)"/>
        <path id="DejaVuSans-35" d="M 691 4666 
L 3169 4666 
L 3169 4134 
L 1269 4134 
L 1269 2991 
Q 1406 3038 1543 3061 
Q 1681 3084 1819 3084 
Q 2600 3084 3056 2656 
Q 3513 2228 3513 1497 
Q 3513 744 3044 326 
Q 2575 -91 1722 -91 
Q 1428 -91 1123 -41 
Q 819 9 494 109 
L 494 744 
Q 775 591 1075 516 
Q 1375 441 1709 441 
Q 2250 441 2565 725 
Q 2881 1009 2881 1497 
Q 2881 1984 2565 2268 
Q 2250 2553 1709 2553 
Q 1456 2553 1204 2497 
Q 953 2441 691 2322 
L 691 4666 
z
" transform="scale(0.015625)"/>
       </defs>
       <use xlink:href="#DejaVuSans-34"/>
       <use xlink:href="#DejaVuSans-35" x="63.623047"/>
      </g>
     </g>
    </g>
    <g id="ytick_7">
     <g id="line2d_18">
      <path d="M 51.05 304.014728 
L 853.2 304.014728 
" clip-path="url(#p84b784e6da)" style="fill: none; stroke: #b0b0b0; stroke-width: 0.8; stroke-linecap: square"/>
     </g>
     <g id="line2d_19">
      <g>
       <use xlink:href="#mae75f282de" x="51.05" y="304.014728" style="stroke: #000000; stroke-width: 0.8"/>
      </g>
     </g>
     <g id="text_13">
      <!-- 54 -->
      <g transform="translate(31.325 307.813946) scale(0.1 -0.1)">
       <use xlink:href="#DejaVuSans-35"/>
       <use xlink:href="#DejaVuSans-34" x="63.623047"/>
      </g>
     </g>
    </g>
    <g id="ytick_8">
     <g id="line2d_20">
      <path d="M 51.05 286.473897 
L 853.2 286.473897 
" clip-path="url(#p84b784e6da)" style="fill: none; stroke: #b0b0b0; stroke-width: 0.8; stroke-linecap: square"/>
     </g>
     <g id="line2d_21">
      <g>
       <use xlink:href="#mae75f282de" x="51.05" y="286.473897" style="stroke: #000000; stroke-width: 0.8"/>
      </g>
     </g>
     <g id="text_14">
      <!-- 63 -->
      <g transform="translate(31.325 290.273116) scale(0.1 -0.1)">
       <use xlink:href="#DejaVuSans-36"/>
       <use xlink:href="#DejaVuSans-33" x="63.623047"/>
      </g>
     </g>
    </g>
    <g id="ytick_9">
     <g id="line2d_22">
      <path d="M 51.05 268.933067 
L 853.2 268.933067 
" clip-path="url(#p84b784e6da)" style="fill: none; stroke: #b0b0b0; stroke-width: 0.8; stroke-linecap: square"/>
     </g>
     <g id="line2d_23">
      <g>
       <use xlink:href="#mae75f282de" x="51.05" y="268.933067" style="stroke: #000000; stroke-width: 0.8"/>
      </g>
     </g>
     <g id="text_15">
      <!-- 72 -->
      <g transform="translate(31.325 272.732285) scale(0.1 -0.1)">
       <use xlink:href="#DejaVuSans-37"/>
       <use xlink:href="#DejaVuSans-32" x="63.623047"/>
      </g>
     </g>
    </g>
    <g id="ytick_10">
     <g id="line2d_24">
      <path d="M 51.05 251.392236 
L 853.2 251.392236 
" clip-path="url(#p84b784e6da)" style="fill: none; stroke: #b0b0b0; stroke-width: 0.8; stroke-linecap: square"/>
     </g>
     <g id="line2d_25">
      <g>
       <use xlink:href="#mae75f282de" x="51.05" y="251.392236" style="stroke: #000000; stroke-width: 0.8"/>
      </g>
     </g>
     <g id="text_16">
      <!-- 81 -->
      <g transform="translate(31.325 255.191455) scale(0.1 -0.1)">
       <use xlink:href="#DejaVuSans-38"/>
       <use xlink:href="#DejaVuSans-31" x="63.623047"/>
      </g>
     </g>
    </g>
    <g id="ytick_11">
     <g id="line2d_26">
      <path d="M 51.05 233.851406 
L 853.2 233.851406 
" clip-path="url(#p84b784e6da)" style="fill: none; stroke: #b0b0b0; stroke-width: 0.8; stroke-linecap: square"/>
     </g>
     <g id="line2d_27">
      <g>
       <use xlink:href="#mae75f282de" x="51.05" y="233.851406" style="stroke: #000000; stroke-width: 0.8"/>
      </g>
     </g>
     <g id="text_17">
      <!-- 90 -->
      <g transform="translate(31.325 237.650624) scale(0.1 -0.1)">
       <use xlink:href="#DejaVuSans-39"/>
       <use xlink:href="#DejaVuSans-30" x="63.623047"/>
      </g>
     </g>
    </g>
    <g id="ytick_12">
     <g id="line2d_28">
      <path d="M 51.05 216.310575 
L 853.2 216.310575 
" clip-path="url(#p84b784e6da)" style="fill: none; stroke: #b0b0b0; stroke-width: 0.8; stroke-linecap: square"/>
     </g>
     <g id="line2d_29">
      <g>
       <use xlink:href="#mae75f282de" x="51.05" y="216.310575" style="stroke: #000000; stroke-width: 0.8"/>
      </g>
     </g>
     <g id="text_18">
      <!-- 99 -->
      <g transform="translate(31.325 220.109794) scale(0.1 -0.1)">
       <use xlink:href="#DejaVuSans-39"/>
       <use xlink:href="#DejaVuSans-39" x="63.623047"/>
      </g>
     </g>
    </g>
    <g id="ytick_13">
     <g id="line2d_30">
      <path d="M 51.05 198.769745 
L 853.2 198.769745 
" clip-path="url(#p84b784e6da)" style="fill: none; stroke: #b0b0b0; stroke-width: 0.8; stroke-linecap: square"/>
     </g>
     <g id="line2d_31">
      <g>
       <use xlink:href="#mae75f282de" x="51.05" y="198.769745" style="stroke: #000000; stroke-width: 0.8"/>
      </g>
     </g>
     <g id="text_19">
      <!-- 108 -->
      <g transform="translate(24.9625 202.568963) scale(0.1 -0.1)">
       <use xlink:href="#DejaVuSans-31"/>
       <use xlink:href="#DejaVuSans-30" x="63.623047"/>
       <use xlink:href="#DejaVuSans-38" x="127.246094"/>
      </g>
     </g>
    </g>
    <g id="ytick_14">
     <g id="line2d_32">
      <path d="M 51.05 181.228914 
L 853.2 181.228914 
" clip-path="url(#p84b784e6da)" style="fill: none; stroke: #b0b0b0; stroke-width: 0.8; stroke-linecap: square"/>
     </g>
     <g id="line2d_33">
      <g>
       <use xlink:href="#mae75f282de" x="51.05" y="181.228914" style="stroke: #000000; stroke-width: 0.8"/>
      </g>
     </g>
     <g id="text_20">
      <!-- 117 -->
      <g transform="translate(24.9625 185.028133) scale(0.1 -0.1)">
       <use xlink:href="#DejaVuSans-31"/>
       <use xlink:href="#DejaVuSans-31" x="63.623047"/>
       <use xlink:href="#DejaVuSans-37" x="127.246094"/>
      </g>
     </g>
    </g>
    <g id="ytick_15">
     <g id="line2d_34">
      <path d="M 51.05 163.688084 
L 853.2 163.688084 
" clip-path="url(#p84b784e6da)" style="fill: none; stroke: #b0b0b0; stroke-width: 0.8; stroke-linecap: square"/>
     </g>
     <g id="line2d_35">
      <g>
       <use xlink:href="#mae75f282de" x="51.05" y="163.688084" style="stroke: #000000; stroke-width: 0.8"/>
      </g>
     </g>
     <g id="text_21">
      <!-- 126 -->
      <g transform="translate(24.9625 167.487302) scale(0.1 -0.1)">
       <use xlink:href="#DejaVuSans-31"/>
       <use xlink:href="#DejaVuSans-32" x="63.623047"/>
       <use xlink:href="#DejaVuSans-36" x="127.246094"/>
      </g>
     </g>
    </g>
    <g id="ytick_16">
     <g id="line2d_36">
      <path d="M 51.05 146.147253 
L 853.2 146.147253 
" clip-path="url(#p84b784e6da)" style="fill: none; stroke: #b0b0b0; stroke-width: 0.8; stroke-linecap: square"/>
     </g>
     <g id="line2d_37">
      <g>
       <use xlink:href="#mae75f282de" x="51.05" y="146.147253" style="stroke: #000000; stroke-width: 0.8"/>
      </g>
     </g>
     <g id="text_22">
      <!-- 135 -->
      <g transform="translate(24.9625 149.946472) scale(0.1 -0.1)">
       <use xlink:href="#DejaVuSans-31"/>
       <use xlink:href="#DejaVuSans-33" x="63.623047"/>
       <use xlink:href="#DejaVuSans-35" x="127.246094"/>
      </g>
     </g>
    </g>
    <g id="ytick_17">
     <g id="line2d_38">
      <path d="M 51.05 128.606422 
L 853.2 128.606422 
" clip-path="url(#p84b784e6da)" style="fill: none; stroke: #b0b0b0; stroke-width: 0.8; stroke-linecap: square"/>
     </g>
     <g id="line2d_39">
      <g>
       <use xlink:href="#mae75f282de" x="51.05" y="128.606422" style="stroke: #000000; stroke-width: 0.8"/>
      </g>
     </g>
     <g id="text_23">
      <!-- 144 -->
      <g transform="translate(24.9625 132.405641) scale(0.1 -0.1)">
       <use xlink:href="#DejaVuSans-31"/>
       <use xlink:href="#DejaVuSans-34" x="63.623047"/>
       <use xlink:href="#DejaVuSans-34" x="127.246094"/>
      </g>
     </g>
    </g>
    <g id="ytick_18">
     <g id="line2d_40">
      <path d="M 51.05 111.065592 
L 853.2 111.065592 
" clip-path="url(#p84b784e6da)" style="fill: none; stroke: #b0b0b0; stroke-width: 0.8; stroke-linecap: square"/>
     </g>
     <g id="line2d_41">
      <g>
       <use xlink:href="#mae75f282de" x="51.05" y="111.065592" style="stroke: #000000; stroke-width: 0.8"/>
      </g>
     </g>
     <g id="text_24">
      <!-- 153 -->
      <g transform="translate(24.9625 114.864811) scale(0.1 -0.1)">
       <use xlink:href="#DejaVuSans-31"/>
       <use xlink:href="#DejaVuSans-35" x="63.623047"/>
       <use xlink:href="#DejaVuSans-33" x="127.246094"/>
      </g>
     </g>
    </g>
    <g id="ytick_19">
     <g id="line2d_42">
      <path d="M 51.05 93.524761 
L 853.2 93.524761 
" clip-path="url(#p84b784e6da)" style="fill: none; stroke: #b0b0b0; stroke-width: 0.8; stroke-linecap: square"/>
     </g>
     <g id="line2d_43">
      <g>
       <use xlink:href="#mae75f282de" x="51.05" y="93.524761" style="stroke: #000000; stroke-width: 0.8"/>
      </g>
     </g>
     <g id="text_25">
      <!-- 162 -->
      <g transform="translate(24.9625 97.32398) scale(0.1 -0.1)">
       <use xlink:href="#DejaVuSans-31"/>
       <use xlink:href="#DejaVuSans-36" x="63.623047"/>
       <use xlink:href="#DejaVuSans-32" x="127.246094"/>
      </g>
     </g>
    </g>
    <g id="ytick_20">
     <g id="line2d_44">
      <path d="M 51.05 75.983931 
L 853.2 75.983931 
" clip-path="url(#p84b784e6da)" style="fill: none; stroke: #b0b0b0; stroke-width: 0.8; stroke-linecap: square"/>
     </g>
     <g id="line2d_45">
      <g>
       <use xlink:href="#mae75f282de" x="51.05" y="75.983931" style="stroke: #000000; stroke-width: 0.8"/>
      </g>
     </g>
     <g id="text_26">
      <!-- 171 -->
      <g transform="translate(24.9625 79.78315) scale(0.1 -0.1)">
       <use xlink:href="#DejaVuSans-31"/>
       <use xlink:href="#DejaVuSans-37" x="63.623047"/>
       <use xlink:href="#DejaVuSans-31" x="127.246094"/>
      </g>
     </g>
    </g>
    <g id="ytick_21">
     <g id="line2d_46">
      <path d="M 51.05 58.4431 
L 853.2 58.4431 
" clip-path="url(#p84b784e6da)" style="fill: none; stroke: #b0b0b0; stroke-width: 0.8; stroke-linecap: square"/>
     </g>
     <g id="line2d_47">
      <g>
       <use xlink:href="#mae75f282de" x="51.05" y="58.4431" style="stroke: #000000; stroke-width: 0.8"/>
      </g>
     </g>
     <g id="text_27">
      <!-- 180 -->
      <g transform="translate(24.9625 62.242319) scale(0.1 -0.1)">
       <use xlink:href="#DejaVuSans-31"/>
       <use xlink:href="#DejaVuSans-38" x="63.623047"/>
       <use xlink:href="#DejaVuSans-30" x="127.246094"/>
      </g>
     </g>
    </g>
    <g id="ytick_22">
     <g id="line2d_48">
      <path d="M 51.05 40.90227 
L 853.2 40.90227 
" clip-path="url(#p84b784e6da)" style="fill: none; stroke: #b0b0b0; stroke-width: 0.8; stroke-linecap: square"/>
     </g>
     <g id="line2d_49">
      <g>
       <use xlink:href="#mae75f282de" x="51.05" y="40.90227" style="stroke: #000000; stroke-width: 0.8"/>
      </g>
     </g>
     <g id="text_28">
      <!-- 189 -->
      <g transform="translate(24.9625 44.701489) scale(0.1 -0.1)">
       <use xlink:href="#DejaVuSans-31"/>
       <use xlink:href="#DejaVuSans-38" x="63.623047"/>
       <use xlink:href="#DejaVuSans-39" x="127.246094"/>
      </g>
     </g>
    </g>
    <g id="text_29">
     <!-- Values -->
     <g transform="translate(18.882813 234.405793) rotate(-90) scale(0.1 -0.1)">
      <defs>
       <path id="DejaVuSans-56" d="M 1831 0 
L 50 4666 
L 709 4666 
L 2188 738 
L 3669 4666 
L 4325 4666 
L 2547 0 
L 1831 0 
z
" transform="scale(0.015625)"/>
       <path id="DejaVuSans-6c" d="M 603 4863 
L 1178 4863 
L 1178 0 
L 603 0 
L 603 4863 
z
" transform="scale(0.015625)"/>
       <path id="DejaVuSans-75" d="M 544 1381 
L 544 3500 
L 1119 3500 
L 1119 1403 
Q 1119 906 1312 657 
Q 1506 409 1894 409 
Q 2359 409 2629 706 
Q 2900 1003 2900 1516 
L 2900 3500 
L 3475 3500 
L 3475 0 
L 2900 0 
L 2900 538 
Q 2691 219 2414 64 
Q 2138 -91 1772 -91 
Q 1169 -91 856 284 
Q 544 659 544 1381 
z
M 1991 3584 
L 1991 3584 
z
" transform="scale(0.015625)"/>
      </defs>
      <use xlink:href="#DejaVuSans-56"/>
      <use xlink:href="#DejaVuSans-61" x="60.658203"/>
      <use xlink:href="#DejaVuSans-6c" x="121.9375"/>
      <use xlink:href="#DejaVuSans-75" x="149.720703"/>
      <use xlink:href="#DejaVuSans-65" x="213.099609"/>
      <use xlink:href="#DejaVuSans-73" x="274.623047"/>
     </g>
    </g>
   </g>
   <g id="patch_8">
    <path d="M 51.05 409.259711 
L 51.05 26.88 
" style="fill: none; stroke: #000000; stroke-width: 0.8; stroke-linejoin: miter; stroke-linecap: square"/>
   </g>
   <g id="patch_9">
    <path d="M 853.2 409.259711 
L 853.2 26.88 
" style="fill: none; stroke: #000000; stroke-width: 0.8; stroke-linejoin: miter; stroke-linecap: square"/>
   </g>
   <g id="patch_10">
    <path d="M 51.05 409.259711 
L 853.2 409.259711 
" style="fill: none; stroke: #000000; stroke-width: 0.8; stroke-linejoin: miter; stroke-linecap: square"/>
   </g>
   <g id="patch_11">
    <path d="M 51.05 26.88 
L 853.2 26.88 
" style="fill: none; stroke: #000000; stroke-width: 0.8; stroke-linejoin: miter; stroke-linecap: square"/>
   </g>
   <g id="text_30">
    <!-- Calls Data for bubble_sort -->
    <g transform="translate(374.298438 20.88) scale(0.12 -0.12)">
     <defs>
      <path id="DejaVuSans-43" d="M 4122 4306 
L 4122 3641 
Q 3803 3938 3442 4084 
Q 3081 4231 2675 4231 
Q 1875 4231 1450 3742 
Q 1025 3253 1025 2328 
Q 1025 1406 1450 917 
Q 1875 428 2675 428 
Q 3081 428 3442 575 
Q 3803 722 4122 1019 
L 4122 359 
Q 3791 134 3420 21 
Q 3050 -91 2638 -91 
Q 1578 -91 968 557 
Q 359 1206 359 2328 
Q 359 3453 968 4101 
Q 1578 4750 2638 4750 
Q 3056 4750 3426 4639 
Q 3797 4528 4122 4306 
z
" transform="scale(0.015625)"/>
      <path id="DejaVuSans-20" transform="scale(0.015625)"/>
      <path id="DejaVuSans-44" d="M 1259 4147 
L 1259 519 
L 2022 519 
Q 2988 519 3436 956 
Q 3884 1394 3884 2338 
Q 3884 3275 3436 3711 
Q 2988 4147 2022 4147 
L 1259 4147 
z
M 628 4666 
L 1925 4666 
Q 3281 4666 3915 4102 
Q 4550 3538 4550 2338 
Q 4550 1131 3912 565 
Q 3275 0 1925 0 
L 628 0 
L 628 4666 
z
" transform="scale(0.015625)"/>
      <path id="DejaVuSans-62" d="M 3116 1747 
Q 3116 2381 2855 2742 
Q 2594 3103 2138 3103 
Q 1681 3103 1420 2742 
Q 1159 2381 1159 1747 
Q 1159 1113 1420 752 
Q 1681 391 2138 391 
Q 2594 391 2855 752 
Q 3116 1113 3116 1747 
z
M 1159 2969 
Q 1341 3281 1617 3432 
Q 1894 3584 2278 3584 
Q 2916 3584 3314 3078 
Q 3713 2572 3713 1747 
Q 3713 922 3314 415 
Q 2916 -91 2278 -91 
Q 1894 -91 1617 61 
Q 1341 213 1159 525 
L 1159 0 
L 581 0 
L 581 4863 
L 1159 4863 
L 1159 2969 
z
" transform="scale(0.015625)"/>
     </defs>
     <use xlink:href="#DejaVuSans-43"/>
     <use xlink:href="#DejaVuSans-61" x="69.824219"/>
     <use xlink:href="#DejaVuSans-6c" x="131.103516"/>
     <use xlink:href="#DejaVuSans-6c" x="158.886719"/>
     <use xlink:href="#DejaVuSans-73" x="186.669922"/>
     <use xlink:href="#DejaVuSans-20" x="238.769531"/>
     <use xlink:href="#DejaVuSans-44" x="270.556641"/>
     <use xlink:href="#DejaVuSans-61" x="347.558594"/>
     <use xlink:href="#DejaVuSans-74" x="408.837891"/>
     <use xlink:href="#DejaVuSans-61" x="448.046875"/>
     <use xlink:href="#DejaVuSans-20" x="509.326172"/>
     <use xlink:href="#DejaVuSans-66" x="541.113281"/>
     <use xlink:href="#DejaVuSans-6f" x="576.318359"/>
     <use xlink:href="#DejaVuSans-72" x="637.5"/>
     <use xlink:href="#DejaVuSans-20" x="678.613281"/>
     <use xlink:href="#DejaVuSans-62" x="710.400391"/>
     <use xlink:href="#DejaVuSans-75" x="773.876953"/>
     <use xlink:href="#DejaVuSans-62" x="837.255859"/>
     <use xlink:href="#DejaVuSans-62" x="900.732422"/>
     <use xlink:href="#DejaVuSans-6c" x="964.208984"/>
     <use xlink:href="#DejaVuSans-65" x="991.992188"/>
     <use xlink:href="#DejaVuSans-5f" x="1053.515625"/>
     <use xlink:href="#DejaVuSans-73" x="1103.515625"/>
     <use xlink:href="#DejaVuSans-6f" x="1155.615234"/>
     <use xlink:href="#DejaVuSans-72" x="1216.796875"/>
     <use xlink:href="#DejaVuSans-74" x="1257.910156"/>
    </g>
   </g>
  </g>
 </g>
 <defs>
  <clipPath id="p84b784e6da">
   <rect x="51.05" y="26.88" width="802.15" height="382.379711"/>
  </clipPath>
 </defs>
</svg>
